<mxfile host="app.diagrams.net" modified="2024-02-15T14:47:00.618Z" agent="Mozilla/5.0 (Windows NT 10.0; Win64; x64) AppleWebKit/537.36 (KHTML, like Gecko) Chrome/121.0.0.0 Safari/537.36" etag="omtnKEs6AgyBcbVECTaO" version="23.1.4" type="github">
  <diagram name="Page-1" id="OHTJHfxgYQxPX2jJm4Qd">
    <mxGraphModel dx="11850" dy="2228" grid="1" gridSize="10" guides="1" tooltips="1" connect="1" arrows="1" fold="1" page="1" pageScale="1" pageWidth="850" pageHeight="1100" math="0" shadow="0">
      <root>
        <mxCell id="0" />
        <mxCell id="1" parent="0" />
        <mxCell id="4710wYX0L7655n3gwE3L-8" value="&lt;div style=&quot;display: flex; justify-content: center; text-align: center; align-items: baseline; font-size: 0; line-height: 1.25;margin-top: -2px;&quot;&gt;&lt;span&gt;&lt;span style=&quot;font-size:50px;color:#1d262b;&quot;&gt;User&lt;/span&gt;&lt;/span&gt;&lt;/div&gt;" style="rounded=1;arcSize=20;whiteSpace=wrap;overflow=block;blockSpacing=1;html=1;fontSize=13;spacing=0;strokeColor=#4881b3;strokeOpacity=100;fillColor=#F5FBFF;strokeWidth=2.3;" vertex="1" parent="1">
          <mxGeometry x="-7500" y="1155" width="720" height="240" as="geometry" />
        </mxCell>
        <mxCell id="4710wYX0L7655n3gwE3L-9" value="&lt;div style=&quot;display: flex; justify-content: center; text-align: center; align-items: baseline; font-size: 0; line-height: 1.25;margin-top: -2px;&quot;&gt;&lt;span&gt;&lt;span style=&quot;font-size:50px;color:#1d262b;&quot;&gt;User&lt;/span&gt;&lt;/span&gt;&lt;/div&gt;" style="rounded=1;arcSize=20;whiteSpace=wrap;overflow=block;blockSpacing=1;html=1;fontSize=13;spacing=0;strokeColor=#4881b3;strokeOpacity=100;fillColor=#F5FBFF;strokeWidth=2.3;" vertex="1" parent="1">
          <mxGeometry x="-7470" y="1185" width="720" height="240" as="geometry" />
        </mxCell>
        <mxCell id="4710wYX0L7655n3gwE3L-10" value="&lt;div style=&quot;display: flex; justify-content: center; text-align: center; align-items: baseline; font-size: 0; line-height: 1.25;margin-top: -2px;&quot;&gt;&lt;span&gt;&lt;span style=&quot;font-size:50px;color:#1d262b;&quot;&gt;products&lt;/span&gt;&lt;/span&gt;&lt;/div&gt;" style="rounded=1;arcSize=20;whiteSpace=wrap;overflow=block;blockSpacing=1;html=1;fontSize=13;spacing=0;strokeColor=#4881b3;strokeOpacity=100;fillColor=#F5FBFF;strokeWidth=2.3;" vertex="1" parent="1">
          <mxGeometry x="-1666" y="945" width="720" height="240" as="geometry" />
        </mxCell>
        <mxCell id="4710wYX0L7655n3gwE3L-11" value="&lt;div style=&quot;display: flex; justify-content: center; text-align: center; align-items: baseline; font-size: 0; line-height: 1.25;margin-top: -2px;&quot;&gt;&lt;span&gt;&lt;span style=&quot;font-size:50px;color:#1d262b;&quot;&gt;carts&lt;/span&gt;&lt;/span&gt;&lt;/div&gt;" style="rounded=1;arcSize=20;whiteSpace=wrap;overflow=block;blockSpacing=1;html=1;fontSize=13;spacing=0;strokeColor=#4881b3;strokeOpacity=100;fillColor=#F5FBFF;strokeWidth=2.3;" vertex="1" parent="1">
          <mxGeometry x="-1666" y="1410" width="720" height="240" as="geometry" />
        </mxCell>
        <mxCell id="4710wYX0L7655n3gwE3L-12" value="&lt;div style=&quot;display: flex; justify-content: center; text-align: center; align-items: baseline; font-size: 0; line-height: 1.25;margin-top: -2px;&quot;&gt;&lt;span&gt;&lt;span style=&quot;font-size:50px;color:#1d262b;&quot;&gt;users&lt;/span&gt;&lt;/span&gt;&lt;/div&gt;" style="rounded=1;arcSize=20;whiteSpace=wrap;overflow=block;blockSpacing=1;html=1;fontSize=13;spacing=0;strokeColor=#4881b3;strokeOpacity=100;fillColor=#F5FBFF;strokeWidth=2.3;" vertex="1" parent="1">
          <mxGeometry x="-1666" y="465" width="720" height="240" as="geometry" />
        </mxCell>
        <mxCell id="4710wYX0L7655n3gwE3L-13" value="&lt;div style=&quot;display: flex; justify-content: center; text-align: center; align-items: baseline; font-size: 0; line-height: 1.25;margin-top: -2px;&quot;&gt;&lt;span&gt;&lt;span style=&quot;font-size:50px;color:#1d262b;&quot;&gt;cart_items&lt;/span&gt;&lt;/span&gt;&lt;/div&gt;" style="rounded=1;arcSize=20;whiteSpace=wrap;overflow=block;blockSpacing=1;html=1;fontSize=13;spacing=0;strokeColor=#4881b3;strokeOpacity=100;fillColor=#F5FBFF;strokeWidth=2.3;" vertex="1" parent="1">
          <mxGeometry x="-1666" y="1965" width="720" height="240" as="geometry" />
        </mxCell>
        <mxCell id="4710wYX0L7655n3gwE3L-14" value="&lt;div style=&quot;display: flex; justify-content: center; text-align: center; align-items: baseline; font-size: 0; line-height: 1.25;margin-top: -2px;&quot;&gt;&lt;span&gt;&lt;span style=&quot;font-size:50px;color:#1d262b;&quot;&gt;orders&lt;/span&gt;&lt;/span&gt;&lt;/div&gt;" style="rounded=1;arcSize=20;whiteSpace=wrap;overflow=block;blockSpacing=1;html=1;fontSize=13;spacing=0;strokeColor=#4881b3;strokeOpacity=100;fillColor=#F5FBFF;strokeWidth=2.3;" vertex="1" parent="1">
          <mxGeometry x="-1666" y="2550" width="720" height="240" as="geometry" />
        </mxCell>
        <mxCell id="4710wYX0L7655n3gwE3L-15" value="&lt;div style=&quot;display: flex; justify-content: center; text-align: center; align-items: baseline; font-size: 0; line-height: 1.25;margin-top: -2px;&quot;&gt;&lt;span&gt;&lt;span style=&quot;font-size:50px;color:#1d262b;&quot;&gt;order_items&lt;/span&gt;&lt;/span&gt;&lt;/div&gt;" style="rounded=1;arcSize=20;whiteSpace=wrap;overflow=block;blockSpacing=1;html=1;fontSize=13;spacing=0;strokeColor=#4881b3;strokeOpacity=100;fillColor=#F5FBFF;strokeWidth=2.3;" vertex="1" parent="1">
          <mxGeometry x="-1666" y="3105" width="720" height="240" as="geometry" />
        </mxCell>
        <mxCell id="4710wYX0L7655n3gwE3L-16" value="&lt;div style=&quot;display: flex; justify-content: center; text-align: center; align-items: baseline; font-size: 0; line-height: 1.25;margin-top: -2px;&quot;&gt;&lt;span&gt;&lt;span style=&quot;font-size:50px;color:#1d262b;&quot;&gt;User&lt;/span&gt;&lt;/span&gt;&lt;/div&gt;" style="rounded=1;arcSize=20;whiteSpace=wrap;overflow=block;blockSpacing=1;html=1;fontSize=13;spacing=0;strokeColor=#4881b3;strokeOpacity=100;fillColor=#F5FBFF;strokeWidth=2.3;" vertex="1" parent="1">
          <mxGeometry x="-76" y="1335" width="720" height="240" as="geometry" />
        </mxCell>
        <mxCell id="4710wYX0L7655n3gwE3L-17" value="&lt;div style=&quot;display: flex; justify-content: center; text-align: center; align-items: baseline; font-size: 0; line-height: 1.25;margin-top: -2px;&quot;&gt;&lt;span&gt;&lt;span style=&quot;font-size:50px;color:#1d262b;&quot;&gt;Admin&lt;/span&gt;&lt;/span&gt;&lt;/div&gt;" style="rounded=1;arcSize=20;whiteSpace=wrap;overflow=block;blockSpacing=1;html=1;fontSize=13;spacing=0;strokeColor=#4881b3;strokeOpacity=100;fillColor=#F5FBFF;strokeWidth=2.3;" vertex="1" parent="1">
          <mxGeometry x="-46" y="1365" width="720" height="240" as="geometry" />
        </mxCell>
        <mxCell id="4710wYX0L7655n3gwE3L-18" value="" style="swimlane;startSize=25;html=1;whiteSpace=wrap;container=1;collapsible=0;childLayout=stackLayout;resizeParent=1;dropTarget=0;rounded=1;arcSize=20;fontStyle=0;fontSize=13;spacing=0;strokeColor=#4881b3;strokeOpacity=100;fillColor=#F5FBFF;strokeWidth=2.3;swimlaneFillColor=#F5FBFF;" vertex="1" parent="1">
          <mxGeometry x="-5880" y="1200" width="645" height="240" as="geometry" />
        </mxCell>
        <mxCell id="4710wYX0L7655n3gwE3L-19" value="&lt;div style=&quot;display: flex; justify-content: center; text-align: center; align-items: baseline; font-size: 0; line-height: 1.25;margin-top: -2px;&quot;&gt;&lt;span&gt;&lt;span style=&quot;font-size:50px;color:#1d262b;&quot;&gt;Login&lt;/span&gt;&lt;/span&gt;&lt;/div&gt;" style="rounded=1;arcSize=20;strokeColor=none;fillColor=none;whiteSpace=wrap;overflow=block;blockSpacing=1;html=1;fontSize=13;spacing=0;strokeOpacity=100;strokeWidth=2.3;" vertex="1" parent="4710wYX0L7655n3gwE3L-18">
          <mxGeometry y="25" width="645" height="215" as="geometry" />
        </mxCell>
        <mxCell id="4710wYX0L7655n3gwE3L-21" value="Request to Login&#xa;email, password" style="html=1;overflow=block;blockSpacing=1;whiteSpace=wrap;fontSize=50;fontColor=#1d262b;spacing=0;strokeColor=#FFFFFF;strokeOpacity=100;rounded=1;absoluteArcSize=1;arcSize=9;fillColor=#FFFFFF;strokeWidth=3.8;lucidId=I0_aEiI-5aN~;" vertex="1" parent="1">
          <mxGeometry x="-6577" y="1060" width="525" height="180" as="geometry" />
        </mxCell>
        <mxCell id="4710wYX0L7655n3gwE3L-23" value="Response&#xa;access token / message" style="html=1;overflow=block;blockSpacing=1;whiteSpace=wrap;fontSize=50;fontColor=#1d262b;spacing=0;strokeColor=#FFFFFF;strokeOpacity=100;rounded=1;absoluteArcSize=1;arcSize=9;fillColor=#FFFFFF;strokeWidth=3.8;lucidId=g1_aDwLO14qw;" vertex="1" parent="1">
          <mxGeometry x="-6577" y="1390" width="597" height="180" as="geometry" />
        </mxCell>
        <mxCell id="4710wYX0L7655n3gwE3L-25" value="Check" style="html=1;overflow=block;blockSpacing=1;whiteSpace=wrap;fontSize=50;fontColor=#1d262b;spacing=0;strokeColor=#FFFFFF;strokeOpacity=100;rounded=1;absoluteArcSize=1;arcSize=9;fillColor=#FFFFFF;strokeWidth=3.8;lucidId=V2_a0Hmyeiz6;" vertex="1" parent="1">
          <mxGeometry x="-4870" y="1180" width="175" height="85" as="geometry" />
        </mxCell>
        <mxCell id="4710wYX0L7655n3gwE3L-27" value="Reply" style="html=1;overflow=block;blockSpacing=1;whiteSpace=wrap;fontSize=50;fontColor=#1d262b;spacing=0;strokeColor=#FFFFFF;strokeOpacity=100;rounded=1;absoluteArcSize=1;arcSize=9;fillColor=#FFFFFF;strokeWidth=3.8;lucidId=S3_aRPnCN661;" vertex="1" parent="1">
          <mxGeometry x="-4875" y="1370" width="185" height="100" as="geometry" />
        </mxCell>
        <mxCell id="4710wYX0L7655n3gwE3L-28" value="all products" style="html=1;overflow=block;blockSpacing=1;whiteSpace=wrap;fontSize=50;fontColor=#1d262b;spacing=0;strokeColor=#4881b3;strokeOpacity=100;rounded=1;absoluteArcSize=1;arcSize=9;fillColor=#F5FBFF;strokeWidth=3.8;lucidId=R7_awM6TgF.7;" vertex="1" parent="1">
          <mxGeometry x="-5370" y="4564" width="405" height="60" as="geometry" />
        </mxCell>
        <mxCell id="4710wYX0L7655n3gwE3L-29" value="all products of owner&#xa;ownerId" style="html=1;overflow=block;blockSpacing=1;whiteSpace=wrap;fontSize=50;fontColor=#1d262b;spacing=0;verticalAlign=top;strokeColor=#4881b3;strokeOpacity=100;rounded=1;absoluteArcSize=1;arcSize=9;fillColor=#F5FBFF;strokeWidth=3.8;lucidId=I9_a.vsjyH0R;" vertex="1" parent="1">
          <mxGeometry x="-5385" y="4684" width="480" height="120" as="geometry" />
        </mxCell>
        <mxCell id="4710wYX0L7655n3gwE3L-30" value="Get Product&#xa;Product Id" style="html=1;overflow=block;blockSpacing=1;whiteSpace=wrap;fontSize=50;fontColor=#1d262b;spacing=0;verticalAlign=top;strokeColor=#4881b3;strokeOpacity=100;rounded=1;absoluteArcSize=1;arcSize=9;fillColor=#F5FBFF;strokeWidth=3.8;lucidId=ma.aOT5quKIR;" vertex="1" parent="1">
          <mxGeometry x="-5385" y="5264" width="480" height="151" as="geometry" />
        </mxCell>
        <mxCell id="4710wYX0L7655n3gwE3L-32" value="Product&#xa;name, category, price" style="html=1;overflow=block;blockSpacing=1;whiteSpace=wrap;fontSize=50;fontColor=#1d262b;spacing=0;strokeColor=#FFFFFF;strokeOpacity=100;rounded=1;absoluteArcSize=1;arcSize=9;fillColor=#FFFFFF;strokeWidth=3.8;lucidId=_g.ab7biIx~K;" vertex="1" parent="1">
          <mxGeometry x="-5370" y="1790" width="510" height="155" as="geometry" />
        </mxCell>
        <mxCell id="4710wYX0L7655n3gwE3L-33" value="" style="swimlane;startSize=25;html=1;whiteSpace=wrap;container=1;collapsible=0;childLayout=stackLayout;resizeParent=1;dropTarget=0;rounded=1;arcSize=20;fontStyle=0;fontSize=13;spacing=0;strokeColor=#4881b3;strokeOpacity=100;fillColor=#F5FBFF;strokeWidth=2.3;swimlaneFillColor=#F5FBFF;" vertex="1" parent="1">
          <mxGeometry x="-4485" y="4564" width="645" height="240" as="geometry" />
        </mxCell>
        <mxCell id="4710wYX0L7655n3gwE3L-34" value="&lt;div style=&quot;display: flex; justify-content: center; text-align: center; align-items: baseline; font-size: 0; line-height: 1.25;margin-top: -2px;&quot;&gt;&lt;span&gt;&lt;span style=&quot;font-size:50px;color:#1d262b;&quot;&gt;Get Products&lt;/span&gt;&lt;/span&gt;&lt;/div&gt;" style="rounded=1;arcSize=20;strokeColor=none;fillColor=none;whiteSpace=wrap;overflow=block;blockSpacing=1;html=1;fontSize=13;spacing=0;strokeOpacity=100;strokeWidth=2.3;" vertex="1" parent="4710wYX0L7655n3gwE3L-33">
          <mxGeometry y="25" width="645" height="215" as="geometry" />
        </mxCell>
        <mxCell id="4710wYX0L7655n3gwE3L-35" value="" style="swimlane;startSize=25;html=1;whiteSpace=wrap;container=1;collapsible=0;childLayout=stackLayout;resizeParent=1;dropTarget=0;rounded=1;arcSize=20;fontStyle=0;fontSize=13;spacing=0;strokeColor=#4881b3;strokeOpacity=100;fillColor=#F5FBFF;strokeWidth=2.3;swimlaneFillColor=#F5FBFF;" vertex="1" parent="1">
          <mxGeometry x="-4485" y="5305" width="645" height="219" as="geometry" />
        </mxCell>
        <mxCell id="4710wYX0L7655n3gwE3L-36" value="&lt;div style=&quot;display: flex; justify-content: center; text-align: center; align-items: baseline; font-size: 0; line-height: 1.25;margin-top: -2px;&quot;&gt;&lt;span&gt;&lt;span style=&quot;font-size:50px;color:#1d262b;&quot;&gt;Get Product&lt;/span&gt;&lt;/span&gt;&lt;/div&gt;" style="rounded=1;arcSize=20;strokeColor=none;fillColor=none;whiteSpace=wrap;overflow=block;blockSpacing=1;html=1;fontSize=13;spacing=0;strokeOpacity=100;strokeWidth=2.3;" vertex="1" parent="4710wYX0L7655n3gwE3L-35">
          <mxGeometry y="25" width="645" height="194" as="geometry" />
        </mxCell>
        <mxCell id="4710wYX0L7655n3gwE3L-42" value="Reply" style="html=1;overflow=block;blockSpacing=1;whiteSpace=wrap;fontSize=50;fontColor=#1d262b;spacing=0;strokeColor=#4881b3;strokeOpacity=100;rounded=1;absoluteArcSize=1;arcSize=9;fillColor=#F5FBFF;strokeWidth=3.8;lucidId=Lq.a5fB5SuMd;" vertex="1" parent="1">
          <mxGeometry x="-5385" y="5082" width="525" height="53" as="geometry" />
        </mxCell>
        <mxCell id="4710wYX0L7655n3gwE3L-44" value="all products of category&#xa;category" style="html=1;overflow=block;blockSpacing=1;whiteSpace=wrap;fontSize=50;fontColor=#1d262b;spacing=0;verticalAlign=top;strokeColor=#4881b3;strokeOpacity=100;rounded=1;absoluteArcSize=1;arcSize=9;fillColor=#F5FBFF;strokeWidth=3.8;lucidId=Fr.aOYlxHsAW;" vertex="1" parent="1">
          <mxGeometry x="-5430" y="4849" width="615" height="105" as="geometry" />
        </mxCell>
        <mxCell id="4710wYX0L7655n3gwE3L-47" value="Reply" style="html=1;overflow=block;blockSpacing=1;whiteSpace=wrap;fontSize=50;fontColor=#1d262b;spacing=0;strokeColor=#4881b3;strokeOpacity=100;rounded=1;absoluteArcSize=1;arcSize=9;fillColor=#F5FBFF;strokeWidth=3.8;lucidId=Nu.a47qAfhWN;" vertex="1" parent="1">
          <mxGeometry x="-5430" y="5456" width="525" height="48" as="geometry" />
        </mxCell>
        <mxCell id="4710wYX0L7655n3gwE3L-48" value="Fetch" style="html=1;overflow=block;blockSpacing=1;whiteSpace=wrap;fontSize=50;fontColor=#1d262b;spacing=0;strokeColor=#4881b3;strokeOpacity=100;rounded=1;absoluteArcSize=1;arcSize=9;fillColor=#F5FBFF;strokeWidth=3.8;lucidId=lx.aVOXltIU2;" vertex="1" parent="1">
          <mxGeometry x="-3720" y="4564" width="180" height="45" as="geometry" />
        </mxCell>
        <mxCell id="4710wYX0L7655n3gwE3L-49" value="Reply" style="html=1;overflow=block;blockSpacing=1;whiteSpace=wrap;fontSize=50;fontColor=#1d262b;spacing=0;strokeColor=#4881b3;strokeOpacity=100;rounded=1;absoluteArcSize=1;arcSize=9;fillColor=#F5FBFF;strokeWidth=3.8;lucidId=Ax.aCC5.vwOS;" vertex="1" parent="1">
          <mxGeometry x="-3900" y="4699" width="525" height="53" as="geometry" />
        </mxCell>
        <mxCell id="4710wYX0L7655n3gwE3L-51" value="Fetch" style="html=1;overflow=block;blockSpacing=1;whiteSpace=wrap;fontSize=50;fontColor=#1d262b;spacing=0;strokeColor=#4881b3;strokeOpacity=100;rounded=1;absoluteArcSize=1;arcSize=9;fillColor=#F5FBFF;strokeWidth=3.8;lucidId=Xy.aeM-RM.zC;" vertex="1" parent="1">
          <mxGeometry x="-3742" y="5329" width="180" height="45" as="geometry" />
        </mxCell>
        <mxCell id="4710wYX0L7655n3gwE3L-53" value="Reply" style="html=1;overflow=block;blockSpacing=1;whiteSpace=wrap;fontSize=50;fontColor=#1d262b;spacing=0;strokeColor=#4881b3;strokeOpacity=100;rounded=1;absoluteArcSize=1;arcSize=9;fillColor=#F5FBFF;strokeWidth=3.8;lucidId=Fz.a26l8_na2;" vertex="1" parent="1">
          <mxGeometry x="-3915" y="5504" width="525" height="53" as="geometry" />
        </mxCell>
        <mxCell id="4710wYX0L7655n3gwE3L-54" value="" style="swimlane;startSize=25;html=1;whiteSpace=wrap;container=1;collapsible=0;childLayout=stackLayout;resizeParent=1;dropTarget=0;rounded=1;arcSize=20;fontStyle=0;fontSize=13;spacing=0;strokeColor=#4881b3;strokeOpacity=100;fillColor=#F5FBFF;strokeWidth=2.3;swimlaneFillColor=#F5FBFF;" vertex="1" parent="1">
          <mxGeometry x="-4485" y="1845" width="645" height="219" as="geometry" />
        </mxCell>
        <mxCell id="4710wYX0L7655n3gwE3L-55" value="&lt;div style=&quot;display: flex; justify-content: center; text-align: center; align-items: baseline; font-size: 0; line-height: 1.25;margin-top: -2px;&quot;&gt;&lt;span&gt;&lt;span style=&quot;font-size:50px;color:#1d262b;&quot;&gt;Create Product&lt;/span&gt;&lt;/span&gt;&lt;/div&gt;" style="rounded=1;arcSize=20;strokeColor=none;fillColor=none;whiteSpace=wrap;overflow=block;blockSpacing=1;html=1;fontSize=13;spacing=0;strokeOpacity=100;strokeWidth=2.3;" vertex="1" parent="4710wYX0L7655n3gwE3L-54">
          <mxGeometry y="25" width="645" height="194" as="geometry" />
        </mxCell>
        <mxCell id="4710wYX0L7655n3gwE3L-58" value="Check unique" style="html=1;overflow=block;blockSpacing=1;whiteSpace=wrap;fontSize=50;fontColor=#1d262b;spacing=0;strokeColor=#FFFFFF;strokeOpacity=100;rounded=1;absoluteArcSize=1;arcSize=9;fillColor=#FFFFFF;strokeWidth=3.8;lucidId=sF.ax78345P3;" vertex="1" parent="1">
          <mxGeometry x="-3750" y="1855" width="345" height="45" as="geometry" />
        </mxCell>
        <mxCell id="4710wYX0L7655n3gwE3L-59" value="Reply" style="html=1;overflow=block;blockSpacing=1;whiteSpace=wrap;fontSize=50;fontColor=#1d262b;spacing=0;strokeColor=#FFFFFF;strokeOpacity=100;rounded=1;absoluteArcSize=1;arcSize=9;fillColor=#FFFFFF;strokeWidth=3.8;lucidId=VF.amhfyq2-7;" vertex="1" parent="1">
          <mxGeometry x="-3647.5" y="2030" width="140" height="45" as="geometry" />
        </mxCell>
        <mxCell id="4710wYX0L7655n3gwE3L-60" value="" style="swimlane;startSize=25;html=1;whiteSpace=wrap;container=1;collapsible=0;childLayout=stackLayout;resizeParent=1;dropTarget=0;rounded=1;arcSize=20;fontStyle=0;fontSize=13;spacing=0;strokeColor=#4881b3;strokeOpacity=100;fillColor=#F5FBFF;strokeWidth=2.3;swimlaneFillColor=#F5FBFF;" vertex="1" parent="1">
          <mxGeometry x="-4485" y="2331" width="645" height="219" as="geometry" />
        </mxCell>
        <mxCell id="4710wYX0L7655n3gwE3L-61" value="&lt;div style=&quot;display: flex; justify-content: center; text-align: center; align-items: baseline; font-size: 0; line-height: 1.25;margin-top: -2px;&quot;&gt;&lt;span&gt;&lt;span style=&quot;font-size:50px;color:#1d262b;&quot;&gt;Create Product&lt;/span&gt;&lt;/span&gt;&lt;/div&gt;" style="rounded=1;arcSize=20;strokeColor=none;fillColor=none;whiteSpace=wrap;overflow=block;blockSpacing=1;html=1;fontSize=13;spacing=0;strokeOpacity=100;strokeWidth=2.3;" vertex="1" parent="4710wYX0L7655n3gwE3L-60">
          <mxGeometry y="25" width="645" height="194" as="geometry" />
        </mxCell>
        <mxCell id="4710wYX0L7655n3gwE3L-62" value="" style="endArrow=classic;html=1;rounded=0;entryX=0;entryY=0.25;entryDx=0;entryDy=0;exitX=1;exitY=0.391;exitDx=0;exitDy=0;exitPerimeter=0;" edge="1" parent="1" source="4710wYX0L7655n3gwE3L-9" target="4710wYX0L7655n3gwE3L-19">
          <mxGeometry width="50" height="50" relative="1" as="geometry">
            <mxPoint x="-6990" y="1990" as="sourcePoint" />
            <mxPoint x="-6940" y="1940" as="targetPoint" />
          </mxGeometry>
        </mxCell>
        <mxCell id="4710wYX0L7655n3gwE3L-63" value="" style="endArrow=classic;html=1;rounded=0;exitX=0;exitY=0.5;exitDx=0;exitDy=0;entryX=1.01;entryY=0.616;entryDx=0;entryDy=0;entryPerimeter=0;" edge="1" parent="1" source="4710wYX0L7655n3gwE3L-19" target="4710wYX0L7655n3gwE3L-9">
          <mxGeometry width="50" height="50" relative="1" as="geometry">
            <mxPoint x="-6300" y="1470" as="sourcePoint" />
            <mxPoint x="-6250" y="1420" as="targetPoint" />
          </mxGeometry>
        </mxCell>
        <mxCell id="4710wYX0L7655n3gwE3L-65" value="" style="endArrow=classic;html=1;rounded=0;exitX=1;exitY=0.25;exitDx=0;exitDy=0;entryX=0;entryY=0.5;entryDx=0;entryDy=0;" edge="1" parent="1" source="4710wYX0L7655n3gwE3L-19" target="4710wYX0L7655n3gwE3L-12">
          <mxGeometry width="50" height="50" relative="1" as="geometry">
            <mxPoint x="-4280" y="1370" as="sourcePoint" />
            <mxPoint x="-1670" y="570" as="targetPoint" />
            <Array as="points">
              <mxPoint x="-4320" y="1279" />
              <mxPoint x="-4320" y="585" />
            </Array>
          </mxGeometry>
        </mxCell>
        <mxCell id="4710wYX0L7655n3gwE3L-66" value="" style="endArrow=classic;html=1;rounded=0;exitX=0;exitY=0.75;exitDx=0;exitDy=0;entryX=1;entryY=0.5;entryDx=0;entryDy=0;" edge="1" parent="1" source="4710wYX0L7655n3gwE3L-12" target="4710wYX0L7655n3gwE3L-19">
          <mxGeometry width="50" height="50" relative="1" as="geometry">
            <mxPoint x="-3490" y="1400" as="sourcePoint" />
            <mxPoint x="-3440" y="1350" as="targetPoint" />
            <Array as="points">
              <mxPoint x="-4120" y="645" />
              <mxPoint x="-4120" y="1333" />
            </Array>
          </mxGeometry>
        </mxCell>
        <mxCell id="4710wYX0L7655n3gwE3L-67" value="" style="endArrow=classic;html=1;rounded=0;exitX=0.5;exitY=1;exitDx=0;exitDy=0;entryX=0;entryY=0.5;entryDx=0;entryDy=0;" edge="1" parent="1" source="4710wYX0L7655n3gwE3L-19" target="4710wYX0L7655n3gwE3L-55">
          <mxGeometry width="50" height="50" relative="1" as="geometry">
            <mxPoint x="-5530" y="2130" as="sourcePoint" />
            <mxPoint x="-5480" y="2080" as="targetPoint" />
            <Array as="points">
              <mxPoint x="-5557" y="1967" />
            </Array>
          </mxGeometry>
        </mxCell>
        <mxCell id="4710wYX0L7655n3gwE3L-71" value="" style="endArrow=classic;html=1;rounded=0;exitX=1;exitY=0.25;exitDx=0;exitDy=0;entryX=0;entryY=0.25;entryDx=0;entryDy=0;" edge="1" parent="1" source="4710wYX0L7655n3gwE3L-55" target="4710wYX0L7655n3gwE3L-10">
          <mxGeometry width="50" height="50" relative="1" as="geometry">
            <mxPoint x="-3030" y="1760" as="sourcePoint" />
            <mxPoint x="-2980" y="1710" as="targetPoint" />
            <Array as="points">
              <mxPoint x="-2930" y="1919" />
              <mxPoint x="-2930" y="1005" />
            </Array>
          </mxGeometry>
        </mxCell>
        <mxCell id="4710wYX0L7655n3gwE3L-72" value="" style="endArrow=classic;html=1;rounded=0;exitX=0;exitY=0.5;exitDx=0;exitDy=0;entryX=1;entryY=0.75;entryDx=0;entryDy=0;" edge="1" parent="1" source="4710wYX0L7655n3gwE3L-10" target="4710wYX0L7655n3gwE3L-55">
          <mxGeometry width="50" height="50" relative="1" as="geometry">
            <mxPoint x="-2320" y="1790" as="sourcePoint" />
            <mxPoint x="-2270" y="1740" as="targetPoint" />
            <Array as="points">
              <mxPoint x="-2780" y="1065" />
              <mxPoint x="-2780" y="2016" />
            </Array>
          </mxGeometry>
        </mxCell>
      </root>
    </mxGraphModel>
  </diagram>
</mxfile>
